<?xml version="1.0" encoding="utf-8"?>
<!-- Generator: Adobe Illustrator 16.0.0, SVG Export Plug-In . SVG Version: 6.00 Build 0)  -->
<!DOCTYPE svg PUBLIC "-//W3C//DTD SVG 1.1//EN" "http://www.w3.org/Graphics/SVG/1.1/DTD/svg11.dtd">
<svg version="1.1" id="Ebene_1" xmlns="http://www.w3.org/2000/svg" xmlns:xlink="http://www.w3.org/1999/xlink" x="0px" y="0px"
	 width="147.912px" height="40px" viewBox="0 0 147.912 40" enable-background="new 0 0 147.912 40" xml:space="preserve">
<g id="Ebene_1_1_">
	<path fill="#FFFFFF" d="M118.489,16.654l-2.095,4.91h4.166L118.489,16.654z M118.549,13.5l5.489,12.768h-1.516l-1.465-3.479h-5.219
		l-1.456,3.479h-1.467L118.549,13.5z M91.283,14.054v1.28h-4.172v3.61h4.024v1.287h-4.024v6.037h-1.374V14.054H91.283z
		 M100.745,14.054c0.978,0,1.813,0.109,2.516,0.326c0.734,0.233,1.385,0.602,1.973,1.087c0.669,0.585,1.184,1.27,1.552,2.065
		c0.336,0.793,0.521,1.663,0.554,2.599c-0.032,0.986-0.232,1.872-0.601,2.657c-0.332,0.787-0.856,1.473-1.559,2.057
		c-0.601,0.524-1.25,0.887-1.954,1.102c-0.714,0.212-1.556,0.32-2.526,0.32h-2.46V14.054H100.745z M102.764,15.601
		c-0.582-0.178-1.243-0.268-1.964-0.268h-1.204v9.646h1.204c0.721,0,1.382-0.067,1.964-0.218c0.544-0.183,1.049-0.468,1.514-0.868
		c0.547-0.453,0.954-1.007,1.222-1.655c0.304-0.636,0.463-1.321,0.463-2.058c0-0.752-0.159-1.454-0.463-2.095
		c-0.268-0.646-0.668-1.198-1.188-1.664C103.861,16.069,103.341,15.793,102.764,15.601z M139.183,14.749
		c0.941,0.538,1.706,1.304,2.273,2.29c0.555,0.937,0.846,2.006,0.888,3.193c0,0.82-0.152,1.571-0.419,2.237
		c-0.273,0.672-0.736,1.357-1.383,2.06l1.838,1.872h-1.738l-1.004-1.086c-0.555,0.383-1.137,0.68-1.739,0.853
		c-0.636,0.216-1.3,0.333-1.957,0.333c-1.171-0.032-2.239-0.317-3.212-0.868c-0.951-0.554-1.686-1.303-2.238-2.254
		c-0.583-0.939-0.875-1.993-0.875-3.146c0-1.187,0.292-2.257,0.875-3.193c0.569-0.985,1.337-1.752,2.273-2.29
		c0.955-0.585,2.024-0.886,3.209-0.886C137.161,13.862,138.231,14.163,139.183,14.749z M140.273,17.624
		c-0.455-0.763-1.052-1.354-1.773-1.789c-0.767-0.46-1.605-0.686-2.526-0.686c-0.936,0-1.791,0.226-2.557,0.686
		c-0.734,0.434-1.322,1.025-1.737,1.789c-0.463,0.769-0.688,1.638-0.688,2.608c0,0.912,0.226,1.756,0.688,2.517
		c0.415,0.726,1.003,1.323,1.737,1.78c0.766,0.451,1.605,0.686,2.524,0.686c0.485,0,0.953-0.076,1.403-0.234
		c0.488-0.15,0.937-0.354,1.323-0.629l-2.927-2.982h1.744l2.1,2.208c0.486-0.525,0.837-1.063,1.057-1.605
		c0.214-0.522,0.318-1.104,0.318-1.739C140.94,19.262,140.706,18.392,140.273,17.624z M29.375,31.689l5.82-24.465l5.82,24.583
		c0.064,0.195,0.117,0.41,0.152,0.625c0,0.021,0,0.06,0,0.099c0.043,0.331,0.063,0.704,0.063,1.13c0,1.643-0.587,3.049-1.767,4.221
		c-1.202,1.235-2.628,1.855-4.269,1.855c-1.641,0-3.063-0.621-4.238-1.855c-1.194-1.172-1.797-2.578-1.797-4.221
		c0-0.654,0.057-1.268,0.156-1.854C29.356,31.768,29.375,31.732,29.375,31.689z M26.739,32.841c0.039,0.333,0.051,0.704,0.051,1.075
		c0,1.68-0.579,3.105-1.75,4.277C23.867,39.404,22.461,40,20.82,40c-1.719,0-3.144-0.596-4.277-1.807
		c-1.211-1.172-1.812-2.599-1.812-4.277c0-0.625,0.054-1.227,0.151-1.816c0.078-0.02,0.116-0.059,0.116-0.078L20.82,7.549
		L26.523,32.1c0.108,0.215,0.176,0.431,0.215,0.625C26.739,32.764,26.739,32.803,26.739,32.841z M76.628,14.054H78v12.213h-1.372
		V14.054z M0.313,31.689l5.765-24.4l5.817,24.615c0.039,0.137,0.117,0.313,0.214,0.527c0,0.02,0,0.059,0,0.098
		c0.03,0.371,0.039,0.748,0.039,1.13c0,1.643-0.577,3.088-1.738,4.319c-1.21,1.172-2.652,1.758-4.332,1.758
		c-1.644,0-3.05-0.586-4.229-1.758C0.606,36.748,0,35.303,0,33.66c0-0.654,0.098-1.229,0.313-1.755
		C0.313,31.842,0.313,31.768,0.313,31.689z"/>
</g>
<g id="Ebene_2">
	<g opacity="0.5">
		<path fill="#FFFFFF" d="M27.816,0c1.657,0,3.103,0.596,4.333,1.787c1.172,1.172,1.758,2.599,1.758,4.28
			c0,0.622-0.073,1.188-0.214,1.702c-0.021,0.033-0.039,0.072-0.039,0.111c-0.039,0.069-0.059,0.117-0.059,0.156l-5.778,24.466
			l-5.766-24.68V7.77c-0.074-0.164-0.137-0.318-0.215-0.455c0-0.039,0-0.098,0-0.162c-0.058-0.346-0.087-0.704-0.087-1.085
			c0-1.681,0.576-3.108,1.748-4.28C24.7,0.596,26.135,0,27.816,0z"/>
		<path fill="#FFFFFF" d="M19.278,8.076c-0.039,0.039-0.059,0.078-0.059,0.103c-0.039,0.043-0.057,0.073-0.057,0.112l-5.764,24.512
			L7.637,8.135V8.076C7.559,7.9,7.5,7.743,7.461,7.568c0-0.039,0-0.071,0-0.098C7.364,7.119,7.305,6.766,7.305,6.377
			c0-1.68,0.589-3.105,1.768-4.266c1.2-1.203,2.635-1.809,4.325-1.809c1.649,0,3.086,0.605,4.329,1.809
			c1.16,1.16,1.746,2.586,1.746,4.266C19.473,7.002,19.408,7.568,19.278,8.076z"/>
	</g>
</g>
</svg>
